<svg xmlns="http://www.w3.org/2000/svg" width="170" height="255" viewBox="0 0 170 255"><rect width="100%" height="100%" fill="#DDDDDD"/><path fill="#999999" d="M41.515 133.685h2.99v2.13h-9.2v-2.13h3.37v-9.69q0-.58.04-1.19l-2.39 2q-.21.17-.41.21-.2.04-.38 0-.18-.03-.32-.12t-.21-.19l-.89-1.23 5.07-4.31h2.33v14.52Zm5.5-14.5h11.49v1.23q0 .55-.12.89-.11.34-.23.57l-6.3 12.97q-.19.41-.55.69-.36.28-.95.28h-2.06l6.43-12.71q.21-.39.43-.72.21-.32.47-.62h-7.95q-.27 0-.46-.2-.2-.19-.2-.46v-1.92Zm25.04 8.32q0 2.17-.47 3.77-.47 1.61-1.29 2.65-.82 1.05-1.94 1.56t-2.42.51q-1.3 0-2.41-.51t-1.93-1.56q-.81-1.04-1.27-2.65-.46-1.6-.46-3.77 0-2.19.46-3.79t1.27-2.64q.82-1.05 1.93-1.56 1.11-.51 2.41-.51t2.42.51q1.12.51 1.94 1.56.82 1.04 1.29 2.64.47 1.6.47 3.79Zm-2.94 0q0-1.81-.26-2.99-.27-1.19-.71-1.89-.44-.7-1.02-.98-.57-.29-1.19-.29-.61 0-1.18.29-.57.28-1.01.98-.43.7-.69 1.89-.26 1.18-.26 2.99 0 1.8.26 2.99.26 1.18.69 1.88.44.7 1.01.98.57.29 1.18.29.62 0 1.19-.29.58-.28 1.02-.98.44-.7.71-1.88.26-1.19.26-2.99Zm21.2 4.5-1.51 1.49-3.9-3.9-3.93 3.92-1.51-1.48 3.94-3.95-3.75-3.75 1.49-1.49 3.75 3.75 3.73-3.73 1.52 1.5-3.74 3.73 3.91 3.91Zm13.84 1.16h4.27q.46 0 .73.26.27.26.27.69v1.7h-11.41v-.94q0-.29.12-.61.12-.31.39-.57l5.05-5.06q.63-.64 1.13-1.23.5-.58.83-1.16.34-.57.52-1.17.17-.59.17-1.24 0-.6-.17-1.06-.17-.45-.49-.76-.31-.31-.76-.47-.44-.15-.99-.15-.51 0-.94.14-.43.15-.76.41-.34.25-.57.6-.23.34-.34.76-.2.53-.51.7-.31.17-.89.08l-1.5-.26q.17-1.2.67-2.1.49-.91 1.23-1.51.75-.6 1.71-.91.96-.3 2.06-.3 1.15 0 2.1.34.96.34 1.64.96.68.62 1.06 1.49.37.88.37 1.95 0 .92-.27 1.7-.27.78-.72 1.49-.45.72-1.06 1.38-.61.67-1.28 1.36l-3.75 3.83q.54-.16 1.08-.25.53-.09 1.01-.09Zm11.58-11.4-.58 3.46q.55-.12 1.06-.17.5-.05.97-.05 1.31 0 2.31.39 1.01.39 1.68 1.08.68.69 1.03 1.62.34.92.34 1.99 0 1.33-.46 2.42-.47 1.09-1.3 1.87-.83.77-1.96 1.2-1.13.42-2.46.42-.79 0-1.49-.16t-1.31-.43q-.62-.27-1.14-.62-.53-.35-.94-.74l.87-1.21q.28-.39.73-.39.29 0 .58.18.3.19.69.41.38.22.91.4.52.18 1.26.18.78 0 1.38-.25.59-.25.99-.71.4-.45.6-1.08.2-.62.2-1.36 0-1.36-.79-2.12-.79-.77-2.33-.77-1.18 0-2.42.44l-1.77-.51 1.38-8.07h8.21v1.21q0 .61-.38.99t-1.29.38h-4.57Zm13.34 0-.58 3.46q.55-.12 1.06-.17.5-.05.97-.05 1.31 0 2.31.39 1.01.39 1.68 1.08.68.69 1.03 1.62.34.92.34 1.99 0 1.33-.46 2.42-.47 1.09-1.3 1.87-.83.77-1.96 1.2-1.13.42-2.46.42-.79 0-1.49-.16t-1.31-.43q-.62-.27-1.14-.62-.53-.35-.94-.74l.87-1.21q.28-.39.73-.39.29 0 .58.18.3.19.69.41.38.22.91.4.52.18 1.26.18.78 0 1.38-.25.59-.25.99-.71.4-.45.6-1.08.2-.62.2-1.36 0-1.36-.79-2.12-.79-.77-2.33-.77-1.18 0-2.42.44l-1.77-.51 1.38-8.07h8.21v1.21q0 .61-.38.99t-1.29.38h-4.57Z"/></svg>