<svg xmlns="http://www.w3.org/2000/svg" width="216" height="324" viewBox="0 0 216 324"><rect width="100%" height="100%" fill="#DDDDDD"/><path fill="#999999" d="M50.745 169.155h5.38q.58 0 .92.32.34.33.34.86v2.15h-14.38v-1.19q0-.36.15-.76t.48-.72l6.37-6.38q.8-.81 1.43-1.55.63-.74 1.05-1.46.42-.73.64-1.48.23-.74.23-1.57 0-.75-.22-1.33-.22-.57-.62-.96-.39-.39-.95-.59-.56-.19-1.26-.19-.63 0-1.18.18-.54.18-.96.51-.42.32-.71.76-.29.43-.44.95-.24.67-.64.89-.39.22-1.13.1l-1.88-.33q.22-1.51.84-2.65t1.56-1.9q.93-.76 2.14-1.14 1.21-.39 2.61-.39 1.45 0 2.65.43t2.06 1.21q.85.78 1.33 1.88.48 1.11.48 2.45 0 1.16-.34 2.15t-.91 1.89q-.58.9-1.34 1.74-.77.84-1.61 1.71l-4.73 4.83q.68-.21 1.35-.32.68-.1 1.29-.1Zm19.21.65h3.77v2.68h-11.6v-2.68h4.25v-12.23q0-.72.04-1.49l-3.01 2.52q-.26.21-.52.26-.25.05-.48 0-.22-.04-.4-.15-.17-.11-.26-.24l-1.13-1.55 6.4-5.44h2.94v18.32Zm19.37-18.29-6.22 7.62-.72.89q.61-.3 1.31-.47.7-.16 1.51-.16 1.19 0 2.32.39 1.12.39 1.98 1.18.85.79 1.37 1.96.53 1.18.53 2.74 0 1.47-.54 2.75-.54 1.29-1.51 2.24-.97.96-2.34 1.51-1.37.55-3.02.55-1.69 0-3.02-.53-1.33-.54-2.28-1.51-.94-.96-1.44-2.32-.5-1.35-.5-3 0-1.48.6-3.04t1.87-3.24l5-6.72q.26-.34.76-.59.5-.25 1.15-.25h3.19Zm-5.41 18.27q.86 0 1.58-.29.72-.29 1.23-.81t.8-1.22q.29-.71.29-1.53 0-.9-.27-1.62-.28-.72-.78-1.22-.51-.5-1.22-.76t-1.57-.26q-.85 0-1.55.29-.7.29-1.19.8-.49.52-.77 1.22-.27.7-.27 1.52 0 .87.24 1.58.24.72.71 1.23t1.16.79q.7.28 1.61.28Zm30.74-2.1-1.9 1.87-4.91-4.91-4.96 4.94-1.9-1.87 4.96-4.97-4.73-4.73 1.89-1.89 4.72 4.73 4.7-4.7 1.92 1.89-4.72 4.71 4.93 4.93Zm12.07-9.99-1.89-.33q.22-1.51.84-2.65.63-1.14 1.56-1.9.94-.76 2.15-1.14 1.21-.39 2.6-.39 1.45 0 2.62.41 1.17.42 1.99 1.15.83.73 1.27 1.72.44.98.44 2.13 0 1-.22 1.76-.23.76-.65 1.33-.42.56-1.04.95-.62.4-1.41.66 1.89.59 2.82 1.81.92 1.22.92 3.06 0 1.57-.58 2.77t-1.56 2.02q-.99.82-2.29 1.24-1.29.42-2.74.42-1.58 0-2.76-.36-1.17-.36-2.04-1.07-.87-.71-1.48-1.74t-1.05-2.38l1.58-.65q.63-.27 1.17-.14.55.12.79.59.26.5.57 1 .32.49.75.87.44.39 1.02.63.59.24 1.4.24.92 0 1.6-.3t1.14-.78q.45-.48.68-1.06.22-.59.22-1.18 0-.76-.16-1.37-.16-.62-.66-1.06-.51-.43-1.46-.68-.95-.24-2.55-.24v-2.56q1.32-.01 2.19-.24.87-.23 1.39-.65.51-.41.72-.99.2-.58.2-1.28 0-1.48-.83-2.24-.82-.77-2.2-.77-.64 0-1.18.18-.53.18-.96.51-.43.32-.72.76-.29.43-.43.95-.25.67-.65.89-.4.22-1.12.1Zm22.21 11.46h5.38q.58 0 .92.32.34.33.34.86v2.15h-14.38v-1.19q0-.36.15-.76t.49-.72l6.36-6.38q.8-.81 1.43-1.55.63-.74 1.05-1.46.42-.73.65-1.48.22-.74.22-1.57 0-.75-.22-1.33-.21-.57-.61-.96t-.96-.59q-.56-.19-1.25-.19-.64 0-1.18.18-.55.18-.97.51-.42.32-.71.76-.29.43-.43.95-.25.67-.64.89-.39.22-1.13.1l-1.89-.33q.22-1.51.84-2.65.63-1.14 1.56-1.9.94-.76 2.15-1.14 1.21-.39 2.6-.39 1.45 0 2.65.43 1.21.43 2.06 1.21.86.78 1.34 1.88.48 1.11.48 2.45 0 1.16-.35 2.15-.34.99-.91 1.89-.57.9-1.34 1.74-.77.84-1.61 1.71l-4.73 4.83q.68-.21 1.36-.32.67-.1 1.28-.1Zm11.92-4.57h6.38v-6.86q0-.97.13-2.15l-6.51 9.01Zm9.5 0h2.64v2.07q0 .29-.19.5-.19.21-.54.21h-1.91v5.12h-3.12v-5.12h-8.84q-.37 0-.64-.22-.28-.23-.35-.56l-.38-1.81 9.94-13.27h3.39v13.08Z"/></svg>